STARTFONT 2.1
FONT -FontForge-Bitstream Vera Sans Mono-Book-R-Normal-SansMono--16-150-75-75-P-99-FontSpecific-0
SIZE 15 75 75
FONTBOUNDINGBOX 10 17 0 -4
COMMENT "Generated by fontforge, http://fontforge.sourceforge.net"
STARTPROPERTIES 28
FONT_NAME "BitstreamVeraSansMono-Roman"
FONT_ASCENT 12
FONT_DESCENT 4
UNDERLINE_POSITION -213
UNDERLINE_THICKNESS 141
QUAD_WIDTH 16
X_HEIGHT 11
CAP_HEIGHT 8
DEFAULT_CHAR -1
FONTNAME_REGISTRY ""
FAMILY_NAME "Bitstream Vera Sans Mono"
FOUNDRY "FontForge"
WEIGHT_NAME "Book"
SETWIDTH_NAME "Normal"
SLANT "R"
ADD_STYLE_NAME "SansMono-"
PIXEL_SIZE 16
POINT_SIZE 150
RESOLUTION_X 75
RESOLUTION_Y 75
RESOLUTION 75
SPACING "P"
AVERAGE_WIDTH 99
CHARSET_REGISTRY "FontSpecific"
CHARSET_ENCODING "0"
CHARSET_COLLECTIONS "ASCII ISO8859-9 FontSpecific"
FULL_NAME "Bitstream Vera Sans Mono"
COPYRIGHT "Copyright (c) 2003 by Bitstream, Inc. All Rights Reserved."
ENDPROPERTIES
CHARS 269
STARTCHAR .null
ENCODING -1
SWIDTH 0 0
DWIDTH 0 0
BBX 1 1 0 0
BITMAP
00
ENDCHAR
STARTCHAR nonmarkingreturn
ENCODING -1
SWIDTH 602 0
DWIDTH 10 0
BBX 1 1 0 0
BITMAP
00
ENDCHAR
STARTCHAR space
ENCODING -1
SWIDTH 602 0
DWIDTH 10 0
BBX 1 1 0 0
BITMAP
00
ENDCHAR
STARTCHAR exclam
ENCODING -1
SWIDTH 602 0
DWIDTH 10 0
BBX 2 12 4 0
BITMAP
C0
C0
C0
C0
C0
C0
C0
80
00
00
C0
C0
ENDCHAR
STARTCHAR quotedbl
ENCODING -1
SWIDTH 602 0
DWIDTH 10 0
BBX 4 4 3 8
BITMAP
90
90
90
90
ENDCHAR
STARTCHAR numbersign
ENCODING -1
SWIDTH 602 0
DWIDTH 10 0
BBX 10 12 0 0
BITMAP
0900
0900
0900
7FC0
7FC0
1200
1200
FF80
FF80
2400
2400
6400
ENDCHAR
STARTCHAR dollar
ENCODING -1
SWIDTH 602 0
DWIDTH 10 0
BBX 8 13 1 -1
BITMAP
10
18
6E
50
D0
70
3C
16
13
13
D6
7C
10
ENDCHAR
STARTCHAR percent
ENCODING -1
SWIDTH 602 0
DWIDTH 10 0
BBX 9 12 0 0
BITMAP
2000
7800
8800
8800
7880
2300
1C00
6780
0480
0880
0480
0700
ENDCHAR
STARTCHAR ampersand
ENCODING -1
SWIDTH 602 0
DWIDTH 10 0
BBX 9 12 0 0
BITMAP
1E00
3200
2000
2000
3000
3800
4C80
4480
C680
4380
6300
3E80
ENDCHAR
STARTCHAR quotesingle
ENCODING -1
SWIDTH 602 0
DWIDTH 10 0
BBX 1 4 4 8
BITMAP
80
80
80
80
ENDCHAR
STARTCHAR parenleft
ENCODING -1
SWIDTH 602 0
DWIDTH 10 0
BBX 4 15 3 -2
BITMAP
10
20
20
60
40
40
C0
C0
C0
C0
40
40
60
20
30
ENDCHAR
STARTCHAR parenright
ENCODING -1
SWIDTH 602 0
DWIDTH 10 0
BBX 3 15 3 -2
BITMAP
80
C0
40
40
60
20
20
20
20
20
60
60
40
40
80
ENDCHAR
STARTCHAR asterisk
ENCODING -1
SWIDTH 602 0
DWIDTH 10 0
BBX 7 8 1 4
BITMAP
10
10
76
18
3C
D2
10
10
ENDCHAR
STARTCHAR plus
ENCODING -1
SWIDTH 602 0
DWIDTH 10 0
BBX 8 8 1 1
BITMAP
10
10
10
FF
FF
10
10
10
ENDCHAR
STARTCHAR comma
ENCODING -1
SWIDTH 602 0
DWIDTH 10 0
BBX 3 4 3 -2
BITMAP
60
60
40
C0
ENDCHAR
STARTCHAR hyphen
ENCODING -1
SWIDTH 602 0
DWIDTH 10 0
BBX 4 1 3 4
BITMAP
F0
ENDCHAR
STARTCHAR period
ENCODING -1
SWIDTH 602 0
DWIDTH 10 0
BBX 2 2 4 0
BITMAP
C0
C0
ENDCHAR
STARTCHAR slash
ENCODING -1
SWIDTH 602 0
DWIDTH 10 0
BBX 7 14 1 -2
BITMAP
02
06
04
0C
08
18
10
10
30
20
60
40
C0
80
ENDCHAR
STARTCHAR zero
ENCODING -1
SWIDTH 602 0
DWIDTH 10 0
BBX 8 12 1 0
BITMAP
3C
66
42
C2
C3
DB
DB
C3
C2
42
66
3C
ENDCHAR
STARTCHAR one
ENCODING -1
SWIDTH 602 0
DWIDTH 10 0
BBX 7 12 2 0
BITMAP
F0
D0
10
10
10
10
10
10
10
10
10
FE
ENDCHAR
STARTCHAR two
ENCODING -1
SWIDTH 602 0
DWIDTH 10 0
BBX 7 12 1 0
BITMAP
7C
CE
06
02
06
06
0C
18
30
60
C0
FE
ENDCHAR
STARTCHAR three
ENCODING -1
SWIDTH 602 0
DWIDTH 10 0
BBX 7 12 1 0
BITMAP
FC
C6
06
02
06
38
06
02
02
02
CE
FC
ENDCHAR
STARTCHAR four
ENCODING -1
SWIDTH 602 0
DWIDTH 10 0
BBX 8 12 1 0
BITMAP
0C
0C
14
34
24
44
C4
84
FF
04
04
04
ENDCHAR
STARTCHAR five
ENCODING -1
SWIDTH 602 0
DWIDTH 10 0
BBX 7 12 1 0
BITMAP
7E
40
40
40
78
4E
06
02
02
06
CE
F8
ENDCHAR
STARTCHAR six
ENCODING -1
SWIDTH 602 0
DWIDTH 10 0
BBX 8 12 1 0
BITMAP
3E
62
40
C0
DC
E6
C2
C3
C3
42
66
3C
ENDCHAR
STARTCHAR seven
ENCODING -1
SWIDTH 602 0
DWIDTH 10 0
BBX 7 12 1 0
BITMAP
FE
02
06
04
0C
0C
08
18
18
10
30
20
ENDCHAR
STARTCHAR eight
ENCODING -1
SWIDTH 602 0
DWIDTH 10 0
BBX 8 12 1 0
BITMAP
3C
66
C2
C2
46
38
66
C2
C3
C3
66
3C
ENDCHAR
STARTCHAR nine
ENCODING -1
SWIDTH 602 0
DWIDTH 10 0
BBX 8 12 1 0
BITMAP
3C
66
C2
C2
C2
C7
6F
3A
02
06
4C
78
ENDCHAR
STARTCHAR colon
ENCODING -1
SWIDTH 602 0
DWIDTH 10 0
BBX 2 9 4 0
BITMAP
C0
C0
C0
00
00
00
00
C0
C0
ENDCHAR
STARTCHAR semicolon
ENCODING -1
SWIDTH 602 0
DWIDTH 10 0
BBX 3 11 3 -2
BITMAP
60
60
60
00
00
00
00
60
60
40
C0
ENDCHAR
STARTCHAR less
ENCODING -1
SWIDTH 602 0
DWIDTH 10 0
BBX 8 8 1 1
BITMAP
03
0E
78
C0
E0
3C
07
01
ENDCHAR
STARTCHAR equal
ENCODING -1
SWIDTH 602 0
DWIDTH 10 0
BBX 8 4 1 3
BITMAP
FF
00
00
FF
ENDCHAR
STARTCHAR greater
ENCODING -1
SWIDTH 602 0
DWIDTH 10 0
BBX 8 8 1 1
BITMAP
80
F0
1C
07
07
38
E0
80
ENDCHAR
STARTCHAR question
ENCODING -1
SWIDTH 602 0
DWIDTH 10 0
BBX 6 12 2 0
BITMAP
78
CC
0C
0C
08
18
30
20
20
00
20
20
ENDCHAR
STARTCHAR at
ENCODING -1
SWIDTH 602 0
DWIDTH 10 0
BBX 9 14 0 -3
BITMAP
1F00
3180
4080
4680
CD80
9880
9080
9880
C980
4F80
4000
2000
1F00
0200
ENDCHAR
STARTCHAR A
ENCODING -1
SWIDTH 602 0
DWIDTH 10 0
BBX 9 12 0 0
BITMAP
0C00
1C00
1E00
1600
1200
3200
2300
2300
7F00
6180
4180
C080
ENDCHAR
STARTCHAR B
ENCODING -1
SWIDTH 602 0
DWIDTH 10 0
BBX 8 12 1 0
BITMAP
FC
C6
C2
C2
C6
FC
C6
C3
C3
C3
C6
FC
ENDCHAR
STARTCHAR C
ENCODING -1
SWIDTH 602 0
DWIDTH 10 0
BBX 7 12 1 0
BITMAP
1E
72
40
C0
C0
C0
C0
C0
C0
60
72
1E
ENDCHAR
STARTCHAR D
ENCODING -1
SWIDTH 602 0
DWIDTH 10 0
BBX 8 12 1 0
BITMAP
F8
CC
C6
C2
C3
C3
C3
C3
C2
C6
CC
F8
ENDCHAR
STARTCHAR E
ENCODING -1
SWIDTH 602 0
DWIDTH 10 0
BBX 7 12 2 0
BITMAP
FC
80
80
80
80
FC
80
80
80
80
80
FE
ENDCHAR
STARTCHAR F
ENCODING -1
SWIDTH 602 0
DWIDTH 10 0
BBX 7 12 2 0
BITMAP
FE
80
80
80
80
FC
80
80
80
80
80
80
ENDCHAR
STARTCHAR G
ENCODING -1
SWIDTH 602 0
DWIDTH 10 0
BBX 8 12 1 0
BITMAP
3E
62
40
C0
C0
C0
CF
C3
C3
43
63
3E
ENDCHAR
STARTCHAR H
ENCODING -1
SWIDTH 602 0
DWIDTH 10 0
BBX 8 12 1 0
BITMAP
C3
C3
C3
C3
C3
FF
C3
C3
C3
C3
C3
C3
ENDCHAR
STARTCHAR I
ENCODING -1
SWIDTH 602 0
DWIDTH 10 0
BBX 6 12 2 0
BITMAP
FC
30
30
30
30
30
30
30
30
30
30
FC
ENDCHAR
STARTCHAR J
ENCODING -1
SWIDTH 602 0
DWIDTH 10 0
BBX 6 12 1 0
BITMAP
3C
04
04
04
04
04
04
04
04
04
CC
F8
ENDCHAR
STARTCHAR K
ENCODING -1
SWIDTH 602 0
DWIDTH 10 0
BBX 8 12 1 0
BITMAP
C3
C6
CC
D8
F0
F0
D8
CC
CC
C6
C3
C3
ENDCHAR
STARTCHAR L
ENCODING -1
SWIDTH 602 0
DWIDTH 10 0
BBX 7 12 2 0
BITMAP
80
80
80
80
80
80
80
80
80
80
80
FE
ENDCHAR
STARTCHAR M
ENCODING -1
SWIDTH 602 0
DWIDTH 10 0
BBX 8 12 1 0
BITMAP
C3
C7
E7
A7
AB
BB
9B
93
83
83
83
83
ENDCHAR
STARTCHAR N
ENCODING -1
SWIDTH 602 0
DWIDTH 10 0
BBX 8 12 1 0
BITMAP
C3
E3
E3
E3
D3
D3
DB
CB
CB
C7
C7
C7
ENDCHAR
STARTCHAR O
ENCODING -1
SWIDTH 602 0
DWIDTH 10 0
BBX 8 12 1 0
BITMAP
3C
66
C2
C3
C3
C3
C3
C3
C3
C2
66
3C
ENDCHAR
STARTCHAR P
ENCODING -1
SWIDTH 602 0
DWIDTH 10 0
BBX 7 12 2 0
BITMAP
F8
8C
86
86
86
8C
FC
80
80
80
80
80
ENDCHAR
STARTCHAR Q
ENCODING -1
SWIDTH 602 0
DWIDTH 10 0
BBX 8 14 1 -2
BITMAP
3C
66
C2
C2
C3
C3
C3
C3
C3
C2
46
7C
0C
06
ENDCHAR
STARTCHAR R
ENCODING -1
SWIDTH 602 0
DWIDTH 10 0
BBX 8 12 1 0
BITMAP
FC
CE
C2
C2
C6
CE
F8
C4
C6
C2
C3
C1
ENDCHAR
STARTCHAR S
ENCODING -1
SWIDTH 602 0
DWIDTH 10 0
BBX 8 12 1 0
BITMAP
3E
66
C0
C0
C0
78
1E
02
03
03
C6
7C
ENDCHAR
STARTCHAR T
ENCODING -1
SWIDTH 602 0
DWIDTH 10 0
BBX 9 12 0 0
BITMAP
FF80
0C00
0C00
0C00
0C00
0C00
0C00
0C00
0C00
0C00
0C00
0C00
ENDCHAR
STARTCHAR U
ENCODING -1
SWIDTH 602 0
DWIDTH 10 0
BBX 7 12 1 0
BITMAP
C2
C2
C2
C2
C2
C2
C2
C2
C2
C2
66
3C
ENDCHAR
STARTCHAR V
ENCODING -1
SWIDTH 602 0
DWIDTH 10 0
BBX 8 12 1 0
BITMAP
83
83
C2
C2
46
46
64
24
2C
38
38
18
ENDCHAR
STARTCHAR W
ENCODING -1
SWIDTH 602 0
DWIDTH 10 0
BBX 10 12 0 0
BITMAP
C0C0
C080
C080
4C80
4C80
4D80
5580
5780
7300
7300
3300
2300
ENDCHAR
STARTCHAR X
ENCODING -1
SWIDTH 602 0
DWIDTH 10 0
BBX 9 12 0 0
BITMAP
6180
2100
3300
1200
1C00
0C00
0C00
1E00
3200
2300
6180
C080
ENDCHAR
STARTCHAR Y
ENCODING -1
SWIDTH 602 0
DWIDTH 10 0
BBX 8 12 1 0
BITMAP
83
C2
46
64
2C
38
18
18
18
18
18
18
ENDCHAR
STARTCHAR Z
ENCODING -1
SWIDTH 602 0
DWIDTH 10 0
BBX 8 12 1 0
BITMAP
FF
03
06
04
0C
08
18
30
20
60
C0
FF
ENDCHAR
STARTCHAR bracketleft
ENCODING -1
SWIDTH 602 0
DWIDTH 10 0
BBX 3 15 4 -2
BITMAP
E0
E0
80
80
80
80
80
80
80
80
80
80
80
80
E0
ENDCHAR
STARTCHAR backslash
ENCODING -1
SWIDTH 602 0
DWIDTH 10 0
BBX 7 14 1 -2
BITMAP
C0
C0
40
60
20
30
10
18
08
0C
04
06
06
02
ENDCHAR
STARTCHAR bracketright
ENCODING -1
SWIDTH 602 0
DWIDTH 10 0
BBX 3 15 3 -2
BITMAP
E0
E0
20
20
20
20
20
20
20
20
20
20
20
20
E0
ENDCHAR
STARTCHAR asciicircum
ENCODING -1
SWIDTH 602 0
DWIDTH 10 0
BBX 7 4 1 8
BITMAP
18
3C
66
C2
ENDCHAR
STARTCHAR underscore
ENCODING -1
SWIDTH 602 0
DWIDTH 10 0
BBX 8 1 0 -4
BITMAP
FF
ENDCHAR
STARTCHAR grave
ENCODING -1
SWIDTH 602 0
DWIDTH 10 0
BBX 3 3 3 10
BITMAP
80
40
60
ENDCHAR
STARTCHAR a
ENCODING -1
SWIDTH 602 0
DWIDTH 10 0
BBX 7 9 1 0
BITMAP
7C
46
02
1E
7E
C2
C2
C6
7A
ENDCHAR
STARTCHAR b
ENCODING -1
SWIDTH 602 0
DWIDTH 10 0
BBX 7 12 2 0
BITMAP
80
80
80
B8
CC
84
86
86
86
84
CC
B8
ENDCHAR
STARTCHAR c
ENCODING -1
SWIDTH 602 0
DWIDTH 10 0
BBX 6 9 2 0
BITMAP
3C
E4
80
80
80
80
C0
E4
3C
ENDCHAR
STARTCHAR d
ENCODING -1
SWIDTH 602 0
DWIDTH 10 0
BBX 7 12 1 0
BITMAP
02
02
02
3A
46
C6
C2
82
C2
C6
46
3A
ENDCHAR
STARTCHAR e
ENCODING -1
SWIDTH 602 0
DWIDTH 10 0
BBX 8 9 1 0
BITMAP
3C
66
C2
C3
FF
C0
C0
62
3E
ENDCHAR
STARTCHAR f
ENCODING -1
SWIDTH 602 0
DWIDTH 10 0
BBX 6 13 2 0
BITMAP
0C
3C
20
20
FC
20
20
20
20
20
20
20
20
ENDCHAR
STARTCHAR g
ENCODING -1
SWIDTH 602 0
DWIDTH 10 0
BBX 7 12 1 -3
BITMAP
3A
46
C6
C2
C2
C2
C6
66
3A
02
06
7C
ENDCHAR
STARTCHAR h
ENCODING -1
SWIDTH 602 0
DWIDTH 10 0
BBX 6 13 2 0
BITMAP
80
80
80
80
B8
CC
84
84
84
84
84
84
84
ENDCHAR
STARTCHAR i
ENCODING -1
SWIDTH 602 0
DWIDTH 10 0
BBX 8 13 1 0
BITMAP
18
18
00
00
78
18
18
18
18
18
18
18
FF
ENDCHAR
STARTCHAR j
ENCODING -1
SWIDTH 602 0
DWIDTH 10 0
BBX 5 16 1 -3
BITMAP
08
08
00
00
78
08
08
08
08
08
08
08
08
08
18
F8
ENDCHAR
STARTCHAR k
ENCODING -1
SWIDTH 602 0
DWIDTH 10 0
BBX 7 13 2 0
BITMAP
80
80
80
80
84
88
90
A0
D0
98
8C
84
86
ENDCHAR
STARTCHAR l
ENCODING -1
SWIDTH 602 0
DWIDTH 10 0
BBX 7 13 1 0
BITMAP
F0
F0
10
10
10
10
10
10
10
10
10
18
0E
ENDCHAR
STARTCHAR m
ENCODING -1
SWIDTH 602 0
DWIDTH 10 0
BBX 8 9 1 0
BITMAP
F6
9B
9B
99
99
99
99
99
99
ENDCHAR
STARTCHAR n
ENCODING -1
SWIDTH 602 0
DWIDTH 10 0
BBX 6 9 2 0
BITMAP
B8
CC
84
84
84
84
84
84
84
ENDCHAR
STARTCHAR o
ENCODING -1
SWIDTH 602 0
DWIDTH 10 0
BBX 8 9 1 0
BITMAP
3C
66
C2
C3
C3
C3
C2
66
3C
ENDCHAR
STARTCHAR p
ENCODING -1
SWIDTH 602 0
DWIDTH 10 0
BBX 8 12 1 -3
BITMAP
DC
E6
C2
C3
C3
C3
C2
E6
DC
C0
C0
C0
ENDCHAR
STARTCHAR q
ENCODING -1
SWIDTH 602 0
DWIDTH 10 0
BBX 7 13 1 -4
BITMAP
3A
66
C6
C2
C2
C2
C2
46
7E
02
02
02
02
ENDCHAR
STARTCHAR r
ENCODING -1
SWIDTH 602 0
DWIDTH 10 0
BBX 6 9 3 0
BITMAP
BC
E4
C0
80
80
80
80
80
80
ENDCHAR
STARTCHAR s
ENCODING -1
SWIDTH 602 0
DWIDTH 10 0
BBX 6 9 2 0
BITMAP
7C
C4
80
C0
78
0C
04
8C
F8
ENDCHAR
STARTCHAR t
ENCODING -1
SWIDTH 602 0
DWIDTH 10 0
BBX 7 12 1 0
BITMAP
30
30
30
FE
30
30
30
30
30
30
10
1E
ENDCHAR
STARTCHAR u
ENCODING -1
SWIDTH 602 0
DWIDTH 10 0
BBX 6 9 2 0
BITMAP
84
84
84
84
84
84
84
8C
74
ENDCHAR
STARTCHAR v
ENCODING -1
SWIDTH 602 0
DWIDTH 10 0
BBX 8 9 1 0
BITMAP
83
C2
42
46
64
24
2C
38
18
ENDCHAR
STARTCHAR w
ENCODING -1
SWIDTH 602 0
DWIDTH 10 0
BBX 10 9 0 0
BITMAP
C0C0
C080
4080
4D80
4D80
7500
7500
3300
3300
ENDCHAR
STARTCHAR x
ENCODING -1
SWIDTH 602 0
DWIDTH 10 0
BBX 8 9 1 0
BITMAP
C2
66
2C
38
18
38
64
46
C3
ENDCHAR
STARTCHAR y
ENCODING -1
SWIDTH 602 0
DWIDTH 10 0
BBX 8 12 1 -3
BITMAP
C3
C2
42
66
24
2C
3C
18
18
10
10
F0
ENDCHAR
STARTCHAR z
ENCODING -1
SWIDTH 602 0
DWIDTH 10 0
BBX 6 9 2 0
BITMAP
FC
0C
08
10
30
60
C0
80
FC
ENDCHAR
STARTCHAR braceleft
ENCODING -1
SWIDTH 602 0
DWIDTH 10 0
BBX 6 15 2 -3
BITMAP
1C
30
30
30
30
30
60
E0
30
30
30
30
30
38
0C
ENDCHAR
STARTCHAR bar
ENCODING -1
SWIDTH 602 0
DWIDTH 10 0
BBX 1 17 4 -4
BITMAP
80
80
80
80
80
80
80
80
80
80
80
80
80
80
80
80
80
ENDCHAR
STARTCHAR braceright
ENCODING -1
SWIDTH 602 0
DWIDTH 10 0
BBX 6 15 2 -3
BITMAP
E0
20
20
20
20
30
18
1C
30
20
20
20
20
E0
C0
ENDCHAR
STARTCHAR asciitilde
ENCODING -1
SWIDTH 602 0
DWIDTH 10 0
BBX 8 2 1 4
BITMAP
F9
8E
ENDCHAR
STARTCHAR nonbreakingspace
ENCODING -1
SWIDTH 602 0
DWIDTH 10 0
BBX 1 1 0 0
BITMAP
00
ENDCHAR
STARTCHAR exclamdown
ENCODING -1
SWIDTH 602 0
DWIDTH 10 0
BBX 2 12 4 0
BITMAP
C0
C0
00
00
80
C0
C0
C0
C0
C0
C0
C0
ENDCHAR
STARTCHAR cent
ENCODING -1
SWIDTH 602 0
DWIDTH 10 0
BBX 6 13 2 -2
BITMAP
10
10
3C
50
D0
90
90
90
D0
70
3C
10
10
ENDCHAR
STARTCHAR sterling
ENCODING -1
SWIDTH 602 0
DWIDTH 10 0
BBX 8 12 1 0
BITMAP
1F
31
30
30
30
30
FC
30
30
30
30
FF
ENDCHAR
STARTCHAR currency
ENCODING -1
SWIDTH 602 0
DWIDTH 10 0
BBX 6 7 2 2
BITMAP
80
F4
48
84
44
68
94
ENDCHAR
STARTCHAR yen
ENCODING -1
SWIDTH 602 0
DWIDTH 10 0
BBX 8 12 1 0
BITMAP
83
C2
46
64
EF
38
18
FF
18
18
18
18
ENDCHAR
STARTCHAR brokenbar
ENCODING -1
SWIDTH 602 0
DWIDTH 10 0
BBX 1 15 4 -3
BITMAP
80
80
80
80
80
80
80
00
00
80
80
80
80
80
80
ENDCHAR
STARTCHAR section
ENCODING -1
SWIDTH 602 0
DWIDTH 10 0
BBX 6 14 2 -2
BITMAP
78
C0
C0
C0
F0
98
8C
C4
6C
18
08
0C
D8
70
ENDCHAR
STARTCHAR dieresis
ENCODING -1
SWIDTH 602 0
DWIDTH 10 0
BBX 5 2 2 11
BITMAP
C8
C8
ENDCHAR
STARTCHAR copyright
ENCODING -1
SWIDTH 602 0
DWIDTH 10 0
BBX 10 10 0 1
BITMAP
1E00
6100
5E80
B080
A040
A040
A080
5E80
6100
1E00
ENDCHAR
STARTCHAR ordfeminine
ENCODING -1
SWIDTH 602 0
DWIDTH 10 0
BBX 6 8 2 4
BITMAP
78
08
38
C8
88
D8
20
FC
ENDCHAR
STARTCHAR guillemotleft
ENCODING -1
SWIDTH 602 0
DWIDTH 10 0
BBX 7 7 1 1
BITMAP
32
66
CC
D8
64
32
10
ENDCHAR
STARTCHAR logicalnot
ENCODING -1
SWIDTH 602 0
DWIDTH 10 0
BBX 8 4 1 3
BITMAP
FF
01
01
01
ENDCHAR
STARTCHAR sfthyphen
ENCODING -1
SWIDTH 602 0
DWIDTH 10 0
BBX 4 1 3 4
BITMAP
F0
ENDCHAR
STARTCHAR registered
ENCODING -1
SWIDTH 602 0
DWIDTH 10 0
BBX 10 10 0 1
BITMAP
1E00
6100
5C80
9280
9240
9C40
9280
5280
6100
1E00
ENDCHAR
STARTCHAR macron
ENCODING -1
SWIDTH 602 0
DWIDTH 10 0
BBX 5 1 2 11
BITMAP
F8
ENDCHAR
STARTCHAR degree
ENCODING -1
SWIDTH 602 0
DWIDTH 10 0
BBX 5 5 2 7
BITMAP
70
48
88
48
70
ENDCHAR
STARTCHAR plusminus
ENCODING -1
SWIDTH 602 0
DWIDTH 10 0
BBX 8 9 1 0
BITMAP
10
10
FF
FF
10
10
00
00
FF
ENDCHAR
STARTCHAR twosuperior
ENCODING -1
SWIDTH 602 0
DWIDTH 10 0
BBX 4 7 3 5
BITMAP
E0
10
10
20
40
80
F0
ENDCHAR
STARTCHAR threesuperior
ENCODING -1
SWIDTH 602 0
DWIDTH 10 0
BBX 4 7 3 5
BITMAP
E0
10
10
60
10
10
E0
ENDCHAR
STARTCHAR acute
ENCODING -1
SWIDTH 602 0
DWIDTH 10 0
BBX 3 3 4 10
BITMAP
60
40
80
ENDCHAR
STARTCHAR mu
ENCODING -1
SWIDTH 602 0
DWIDTH 10 0
BBX 7 12 2 -3
BITMAP
84
84
84
84
84
84
84
CC
F6
80
80
80
ENDCHAR
STARTCHAR paragraph
ENCODING -1
SWIDTH 602 0
DWIDTH 10 0
BBX 7 14 1 -2
BITMAP
7E
F2
F2
F2
F2
72
32
12
12
12
12
12
12
12
ENDCHAR
STARTCHAR periodcentered
ENCODING -1
SWIDTH 602 0
DWIDTH 10 0
BBX 2 3 4 4
BITMAP
C0
C0
C0
ENDCHAR
STARTCHAR cedilla
ENCODING -1
SWIDTH 602 0
DWIDTH 10 0
BBX 3 3 3 -3
BITMAP
20
20
E0
ENDCHAR
STARTCHAR onesuperior
ENCODING -1
SWIDTH 602 0
DWIDTH 10 0
BBX 4 7 3 5
BITMAP
E0
60
60
60
60
60
F0
ENDCHAR
STARTCHAR ordmasculine
ENCODING -1
SWIDTH 602 0
DWIDTH 10 0
BBX 6 8 2 4
BITMAP
78
C8
8C
8C
8C
58
20
F8
ENDCHAR
STARTCHAR guillemotright
ENCODING -1
SWIDTH 602 0
DWIDTH 10 0
BBX 7 6 2 2
BITMAP
90
C8
64
26
CC
98
ENDCHAR
STARTCHAR onequarter
ENCODING -1
SWIDTH 602 0
DWIDTH 10 0
BBX 9 15 0 -2
BITMAP
7000
3000
3000
3000
3000
7800
0380
3C00
C300
0300
0500
0900
0900
0F80
0100
ENDCHAR
STARTCHAR onehalf
ENCODING -1
SWIDTH 602 0
DWIDTH 10 0
BBX 9 15 0 -2
BITMAP
7000
3000
3000
3000
3000
7800
0380
3C00
C600
0900
0100
0100
0200
0400
0F80
ENDCHAR
STARTCHAR threequarters
ENCODING -1
SWIDTH 602 0
DWIDTH 10 0
BBX 9 15 0 -2
BITMAP
7800
0800
3800
0800
0800
5800
2180
1E00
E300
0300
0500
0900
0900
0F80
0100
ENDCHAR
STARTCHAR questiondown
ENCODING -1
SWIDTH 602 0
DWIDTH 10 0
BBX 6 12 2 0
BITMAP
30
30
00
30
30
30
60
C0
80
80
CC
78
ENDCHAR
STARTCHAR Agrave
ENCODING -1
SWIDTH 602 0
DWIDTH 10 0
BBX 9 15 0 0
BITMAP
0800
0C00
0000
0C00
1C00
1E00
1600
1200
3200
2300
2300
7F00
6180
4180
C080
ENDCHAR
STARTCHAR Aacute
ENCODING -1
SWIDTH 602 0
DWIDTH 10 0
BBX 9 15 0 0
BITMAP
0400
0800
0000
0C00
1C00
1E00
1600
1200
3200
2300
2300
7F00
6180
4180
C080
ENDCHAR
STARTCHAR Acircumflex
ENCODING -1
SWIDTH 602 0
DWIDTH 10 0
BBX 9 15 0 0
BITMAP
1C00
1200
0000
0C00
1C00
1E00
1600
1200
3200
2300
2300
7F00
6180
4180
C080
ENDCHAR
STARTCHAR Atilde
ENCODING -1
SWIDTH 602 0
DWIDTH 10 0
BBX 9 15 0 0
BITMAP
1A00
2400
0000
0C00
1C00
1E00
1600
1200
3200
2300
2300
7F00
6180
4180
C080
ENDCHAR
STARTCHAR Adieresis
ENCODING -1
SWIDTH 602 0
DWIDTH 10 0
BBX 9 15 0 0
BITMAP
3200
3200
0000
0C00
1C00
1E00
1600
1200
3200
2300
2300
7F00
6180
4180
C080
ENDCHAR
STARTCHAR Aring
ENCODING -1
SWIDTH 602 0
DWIDTH 10 0
BBX 9 15 0 0
BITMAP
1C00
1200
1200
1C00
1C00
1E00
1600
1200
3200
2300
2300
7F00
6180
4180
C080
ENDCHAR
STARTCHAR AE
ENCODING -1
SWIDTH 602 0
DWIDTH 10 0
BBX 9 12 0 0
BITMAP
1F80
1400
1400
3400
2400
2780
6400
6400
7C00
4400
C400
C780
ENDCHAR
STARTCHAR Ccedilla
ENCODING -1
SWIDTH 602 0
DWIDTH 10 0
BBX 7 15 1 -3
BITMAP
1E
72
40
C0
C0
C0
C0
C0
C0
60
72
1E
04
04
1C
ENDCHAR
STARTCHAR Egrave
ENCODING -1
SWIDTH 602 0
DWIDTH 10 0
BBX 7 15 2 0
BITMAP
20
10
00
FC
80
80
80
80
FC
80
80
80
80
80
FE
ENDCHAR
STARTCHAR Eacute
ENCODING -1
SWIDTH 602 0
DWIDTH 10 0
BBX 7 15 2 0
BITMAP
10
20
00
FC
80
80
80
80
FC
80
80
80
80
80
FE
ENDCHAR
STARTCHAR Ecircumflex
ENCODING -1
SWIDTH 602 0
DWIDTH 10 0
BBX 7 15 2 0
BITMAP
30
48
00
FC
80
80
80
80
FC
80
80
80
80
80
FE
ENDCHAR
STARTCHAR Edieresis
ENCODING -1
SWIDTH 602 0
DWIDTH 10 0
BBX 7 15 2 0
BITMAP
48
48
00
FC
80
80
80
80
FC
80
80
80
80
80
FE
ENDCHAR
STARTCHAR Igrave
ENCODING -1
SWIDTH 602 0
DWIDTH 10 0
BBX 6 15 2 0
BITMAP
20
30
00
FC
30
30
30
30
30
30
30
30
30
30
FC
ENDCHAR
STARTCHAR Iacute
ENCODING -1
SWIDTH 602 0
DWIDTH 10 0
BBX 6 15 2 0
BITMAP
10
20
00
FC
30
30
30
30
30
30
30
30
30
30
FC
ENDCHAR
STARTCHAR Icircumflex
ENCODING -1
SWIDTH 602 0
DWIDTH 10 0
BBX 6 15 2 0
BITMAP
70
48
00
FC
30
30
30
30
30
30
30
30
30
30
FC
ENDCHAR
STARTCHAR Idieresis
ENCODING -1
SWIDTH 602 0
DWIDTH 10 0
BBX 6 15 2 0
BITMAP
C8
C8
00
FC
30
30
30
30
30
30
30
30
30
30
FC
ENDCHAR
STARTCHAR Eth
ENCODING -1
SWIDTH 602 0
DWIDTH 10 0
BBX 9 12 0 0
BITMAP
7C00
6600
6300
6100
6180
F980
6180
6180
6100
6300
6600
7C00
ENDCHAR
STARTCHAR Ntilde
ENCODING -1
SWIDTH 602 0
DWIDTH 10 0
BBX 8 15 1 0
BITMAP
74
48
00
C3
E3
E3
E3
D3
D3
DB
CB
CB
C7
C7
C7
ENDCHAR
STARTCHAR Ograve
ENCODING -1
SWIDTH 602 0
DWIDTH 10 0
BBX 8 15 1 0
BITMAP
30
18
00
3C
66
C2
C3
C3
C3
C3
C3
C3
C2
66
3C
ENDCHAR
STARTCHAR Oacute
ENCODING -1
SWIDTH 602 0
DWIDTH 10 0
BBX 8 15 1 0
BITMAP
08
10
00
3C
66
C2
C3
C3
C3
C3
C3
C3
C2
66
3C
ENDCHAR
STARTCHAR Ocircumflex
ENCODING -1
SWIDTH 602 0
DWIDTH 10 0
BBX 8 15 1 0
BITMAP
18
24
00
3C
66
C2
C3
C3
C3
C3
C3
C3
C2
66
3C
ENDCHAR
STARTCHAR Otilde
ENCODING -1
SWIDTH 602 0
DWIDTH 10 0
BBX 8 15 1 0
BITMAP
34
4C
00
3C
66
C2
C3
C3
C3
C3
C3
C3
C2
66
3C
ENDCHAR
STARTCHAR Odieresis
ENCODING -1
SWIDTH 602 0
DWIDTH 10 0
BBX 8 15 1 0
BITMAP
64
64
00
3C
66
C2
C3
C3
C3
C3
C3
C3
C2
66
3C
ENDCHAR
STARTCHAR multiply
ENCODING -1
SWIDTH 602 0
DWIDTH 10 0
BBX 7 8 1 1
BITMAP
02
46
2C
18
38
64
C6
02
ENDCHAR
STARTCHAR Oslash
ENCODING -1
SWIDTH 602 0
DWIDTH 10 0
BBX 9 12 0 0
BITMAP
1E80
3300
6100
6380
6580
6D80
6980
7180
7100
6100
7300
9E00
ENDCHAR
STARTCHAR Ugrave
ENCODING -1
SWIDTH 602 0
DWIDTH 10 0
BBX 7 15 1 0
BITMAP
10
18
00
C2
C2
C2
C2
C2
C2
C2
C2
C2
C2
66
3C
ENDCHAR
STARTCHAR Uacute
ENCODING -1
SWIDTH 602 0
DWIDTH 10 0
BBX 7 15 1 0
BITMAP
08
10
00
C2
C2
C2
C2
C2
C2
C2
C2
C2
C2
66
3C
ENDCHAR
STARTCHAR Ucircumflex
ENCODING -1
SWIDTH 602 0
DWIDTH 10 0
BBX 7 15 1 0
BITMAP
38
24
00
C2
C2
C2
C2
C2
C2
C2
C2
C2
C2
66
3C
ENDCHAR
STARTCHAR Udieresis
ENCODING -1
SWIDTH 602 0
DWIDTH 10 0
BBX 7 15 1 0
BITMAP
6C
6C
00
C2
C2
C2
C2
C2
C2
C2
C2
C2
C2
66
3C
ENDCHAR
STARTCHAR Yacute
ENCODING -1
SWIDTH 602 0
DWIDTH 10 0
BBX 8 15 1 0
BITMAP
08
10
00
83
C2
46
64
2C
38
18
18
18
18
18
18
ENDCHAR
STARTCHAR Thorn
ENCODING -1
SWIDTH 602 0
DWIDTH 10 0
BBX 7 12 2 0
BITMAP
80
80
F8
9E
86
86
86
8E
FC
80
80
80
ENDCHAR
STARTCHAR germandbls
ENCODING -1
SWIDTH 602 0
DWIDTH 10 0
BBX 8 12 1 0
BITMAP
7C
46
C2
CC
D8
D8
CC
C6
C3
C3
C3
DE
ENDCHAR
STARTCHAR agrave
ENCODING -1
SWIDTH 602 0
DWIDTH 10 0
BBX 7 13 1 0
BITMAP
20
10
18
00
7C
46
02
1E
7E
C2
C2
C6
7A
ENDCHAR
STARTCHAR aacute
ENCODING -1
SWIDTH 602 0
DWIDTH 10 0
BBX 7 13 1 0
BITMAP
0C
08
10
00
7C
46
02
1E
7E
C2
C2
C6
7A
ENDCHAR
STARTCHAR acircumflex
ENCODING -1
SWIDTH 602 0
DWIDTH 10 0
BBX 7 13 1 0
BITMAP
18
28
24
00
7C
46
02
1E
7E
C2
C2
C6
7A
ENDCHAR
STARTCHAR atilde
ENCODING -1
SWIDTH 602 0
DWIDTH 10 0
BBX 7 13 1 0
BITMAP
34
5C
00
00
7C
46
02
1E
7E
C2
C2
C6
7A
ENDCHAR
STARTCHAR adieresis
ENCODING -1
SWIDTH 602 0
DWIDTH 10 0
BBX 7 13 1 0
BITMAP
64
64
00
00
7C
46
02
1E
7E
C2
C2
C6
7A
ENDCHAR
STARTCHAR aring
ENCODING -1
SWIDTH 602 0
DWIDTH 10 0
BBX 7 14 1 0
BITMAP
3C
24
24
18
00
7C
46
02
1E
7E
C2
C2
C6
7A
ENDCHAR
STARTCHAR ae
ENCODING -1
SWIDTH 602 0
DWIDTH 10 0
BBX 9 9 0 0
BITMAP
7F00
0C80
0C80
0C80
7F80
CC00
CC00
CC00
7780
ENDCHAR
STARTCHAR ccedilla
ENCODING -1
SWIDTH 602 0
DWIDTH 10 0
BBX 6 12 2 -3
BITMAP
3C
E4
80
80
80
80
C0
E4
3C
08
08
38
ENDCHAR
STARTCHAR egrave
ENCODING -1
SWIDTH 602 0
DWIDTH 10 0
BBX 8 13 1 0
BITMAP
20
10
08
00
3C
66
C2
C3
FF
C0
C0
62
3E
ENDCHAR
STARTCHAR eacute
ENCODING -1
SWIDTH 602 0
DWIDTH 10 0
BBX 8 13 1 0
BITMAP
04
08
10
00
3C
66
C2
C3
FF
C0
C0
62
3E
ENDCHAR
STARTCHAR ecircumflex
ENCODING -1
SWIDTH 602 0
DWIDTH 10 0
BBX 8 13 1 0
BITMAP
18
2C
24
00
3C
66
C2
C3
FF
C0
C0
62
3E
ENDCHAR
STARTCHAR edieresis
ENCODING -1
SWIDTH 602 0
DWIDTH 10 0
BBX 8 13 1 0
BITMAP
24
24
00
00
3C
66
C2
C3
FF
C0
C0
62
3E
ENDCHAR
STARTCHAR igrave
ENCODING -1
SWIDTH 602 0
DWIDTH 10 0
BBX 8 13 1 0
BITMAP
20
10
18
00
78
18
18
18
18
18
18
18
FF
ENDCHAR
STARTCHAR iacute
ENCODING -1
SWIDTH 602 0
DWIDTH 10 0
BBX 8 13 1 0
BITMAP
0C
08
10
00
78
18
18
18
18
18
18
18
FF
ENDCHAR
STARTCHAR icircumflex
ENCODING -1
SWIDTH 602 0
DWIDTH 10 0
BBX 8 13 1 0
BITMAP
18
28
24
00
78
18
18
18
18
18
18
18
FF
ENDCHAR
STARTCHAR idieresis
ENCODING -1
SWIDTH 602 0
DWIDTH 10 0
BBX 8 13 1 0
BITMAP
64
64
00
00
78
18
18
18
18
18
18
18
FF
ENDCHAR
STARTCHAR eth
ENCODING -1
SWIDTH 602 0
DWIDTH 10 0
BBX 8 13 1 0
BITMAP
60
3E
78
0C
3C
66
C2
C2
C3
C3
C2
66
3C
ENDCHAR
STARTCHAR ntilde
ENCODING -1
SWIDTH 602 0
DWIDTH 10 0
BBX 6 13 2 0
BITMAP
68
B8
00
00
B8
CC
84
84
84
84
84
84
84
ENDCHAR
STARTCHAR ograve
ENCODING -1
SWIDTH 602 0
DWIDTH 10 0
BBX 8 13 1 0
BITMAP
20
10
18
00
3C
66
C2
C3
C3
C3
C2
66
3C
ENDCHAR
STARTCHAR oacute
ENCODING -1
SWIDTH 602 0
DWIDTH 10 0
BBX 8 13 1 0
BITMAP
0C
08
10
00
3C
66
C2
C3
C3
C3
C2
66
3C
ENDCHAR
STARTCHAR ocircumflex
ENCODING -1
SWIDTH 602 0
DWIDTH 10 0
BBX 8 13 1 0
BITMAP
18
28
24
00
3C
66
C2
C3
C3
C3
C2
66
3C
ENDCHAR
STARTCHAR otilde
ENCODING -1
SWIDTH 602 0
DWIDTH 10 0
BBX 8 13 1 0
BITMAP
34
5C
00
00
3C
66
C2
C3
C3
C3
C2
66
3C
ENDCHAR
STARTCHAR odieresis
ENCODING -1
SWIDTH 602 0
DWIDTH 10 0
BBX 8 13 1 0
BITMAP
64
64
00
00
3C
66
C2
C3
C3
C3
C2
66
3C
ENDCHAR
STARTCHAR divide
ENCODING -1
SWIDTH 602 0
DWIDTH 10 0
BBX 8 8 1 1
BITMAP
18
18
00
FF
FF
00
18
18
ENDCHAR
STARTCHAR oslash
ENCODING -1
SWIDTH 602 0
DWIDTH 10 0
BBX 8 9 1 0
BITMAP
3D
66
C6
CB
D3
F2
E2
66
BC
ENDCHAR
STARTCHAR ugrave
ENCODING -1
SWIDTH 602 0
DWIDTH 10 0
BBX 6 13 2 0
BITMAP
40
20
30
00
84
84
84
84
84
84
84
8C
74
ENDCHAR
STARTCHAR uacute
ENCODING -1
SWIDTH 602 0
DWIDTH 10 0
BBX 6 13 2 0
BITMAP
18
10
20
00
84
84
84
84
84
84
84
8C
74
ENDCHAR
STARTCHAR ucircumflex
ENCODING -1
SWIDTH 602 0
DWIDTH 10 0
BBX 6 13 2 0
BITMAP
30
50
48
00
84
84
84
84
84
84
84
8C
74
ENDCHAR
STARTCHAR udieresis
ENCODING -1
SWIDTH 602 0
DWIDTH 10 0
BBX 6 13 2 0
BITMAP
C8
C8
00
00
84
84
84
84
84
84
84
8C
74
ENDCHAR
STARTCHAR yacute
ENCODING -1
SWIDTH 602 0
DWIDTH 10 0
BBX 8 16 1 -3
BITMAP
0C
08
10
00
C3
C2
42
66
24
2C
3C
18
18
10
10
F0
ENDCHAR
STARTCHAR thorn
ENCODING -1
SWIDTH 602 0
DWIDTH 10 0
BBX 8 15 1 -3
BITMAP
C0
C0
C0
DC
E6
C2
C3
C3
C3
C2
E6
DC
C0
C0
C0
ENDCHAR
STARTCHAR ydieresis
ENCODING -1
SWIDTH 602 0
DWIDTH 10 0
BBX 8 16 1 -3
BITMAP
64
64
00
00
C3
C2
42
66
24
2C
3C
18
18
10
10
F0
ENDCHAR
STARTCHAR Cacute
ENCODING -1
SWIDTH 602 0
DWIDTH 10 0
BBX 7 15 1 0
BITMAP
04
08
00
1E
72
40
C0
C0
C0
C0
C0
C0
60
72
1E
ENDCHAR
STARTCHAR cacute
ENCODING -1
SWIDTH 602 0
DWIDTH 10 0
BBX 6 13 2 0
BITMAP
0C
18
10
00
3C
E4
80
80
80
80
C0
E4
3C
ENDCHAR
STARTCHAR Ccaron
ENCODING -1
SWIDTH 602 0
DWIDTH 10 0
BBX 7 15 1 0
BITMAP
14
1C
00
1E
72
40
C0
C0
C0
C0
C0
C0
60
72
1E
ENDCHAR
STARTCHAR ccaron
ENCODING -1
SWIDTH 602 0
DWIDTH 10 0
BBX 6 13 2 0
BITMAP
6C
28
10
00
3C
E4
80
80
80
80
C0
E4
3C
ENDCHAR
STARTCHAR dcroat
ENCODING -1
SWIDTH 602 0
DWIDTH 10 0
BBX 9 12 1 0
BITMAP
0200
1F80
0200
3A00
4600
C600
C200
8200
C200
C600
4600
3A00
ENDCHAR
STARTCHAR Gbreve
ENCODING -1
SWIDTH 602 0
DWIDTH 10 0
BBX 8 15 1 0
BITMAP
64
38
00
3E
62
40
C0
C0
C0
CF
C3
C3
43
63
3E
ENDCHAR
STARTCHAR gbreve
ENCODING -1
SWIDTH 602 0
DWIDTH 10 0
BBX 7 16 1 -3
BITMAP
44
3C
00
00
3A
46
C6
C2
C2
C2
C6
66
3A
02
06
7C
ENDCHAR
STARTCHAR Idotaccent
ENCODING -1
SWIDTH 602 0
DWIDTH 10 0
BBX 6 15 2 0
BITMAP
30
30
00
FC
30
30
30
30
30
30
30
30
30
30
FC
ENDCHAR
STARTCHAR dotlessi
ENCODING -1
SWIDTH 602 0
DWIDTH 10 0
BBX 8 9 1 0
BITMAP
78
18
18
18
18
18
18
18
FF
ENDCHAR
STARTCHAR Lslash
ENCODING -1
SWIDTH 602 0
DWIDTH 10 0
BBX 9 12 0 0
BITMAP
2000
2000
2000
2400
2C00
3000
6000
E000
2000
2000
2000
3F80
ENDCHAR
STARTCHAR lslash
ENCODING -1
SWIDTH 602 0
DWIDTH 10 0
BBX 7 13 1 0
BITMAP
F0
F0
10
12
16
18
30
50
90
10
10
18
0E
ENDCHAR
STARTCHAR OE
ENCODING -1
SWIDTH 602 0
DWIDTH 10 0
BBX 9 12 1 0
BITMAP
7F00
EC00
CC00
8C00
8C00
8F00
8C00
8C00
8C00
CC00
EC00
7F80
ENDCHAR
STARTCHAR oe
ENCODING -1
SWIDTH 602 0
DWIDTH 10 0
BBX 9 9 0 0
BITMAP
7F00
4C80
CC80
CC80
8F80
8C00
CC00
CC00
7F80
ENDCHAR
STARTCHAR Scedilla
ENCODING -1
SWIDTH 602 0
DWIDTH 10 0
BBX 8 15 1 -3
BITMAP
3E
66
C0
C0
C0
78
1E
02
03
03
C6
7C
08
08
38
ENDCHAR
STARTCHAR scedilla
ENCODING -1
SWIDTH 602 0
DWIDTH 10 0
BBX 6 12 2 -3
BITMAP
7C
C4
80
C0
78
0C
04
8C
F8
10
10
70
ENDCHAR
STARTCHAR Scaron
ENCODING -1
SWIDTH 602 0
DWIDTH 10 0
BBX 8 15 1 0
BITMAP
24
18
00
3E
66
C0
C0
C0
78
1E
02
03
03
C6
7C
ENDCHAR
STARTCHAR scaron
ENCODING -1
SWIDTH 602 0
DWIDTH 10 0
BBX 6 13 2 0
BITMAP
48
70
30
00
7C
C4
80
C0
78
0C
04
8C
F8
ENDCHAR
STARTCHAR Ydieresis
ENCODING -1
SWIDTH 602 0
DWIDTH 10 0
BBX 8 15 1 0
BITMAP
64
64
00
83
C2
46
64
2C
38
18
18
18
18
18
18
ENDCHAR
STARTCHAR Zcaron
ENCODING -1
SWIDTH 602 0
DWIDTH 10 0
BBX 8 15 1 0
BITMAP
2C
18
00
FF
03
06
04
0C
08
18
30
20
60
C0
FF
ENDCHAR
STARTCHAR zcaron
ENCODING -1
SWIDTH 602 0
DWIDTH 10 0
BBX 6 13 2 0
BITMAP
48
70
30
00
FC
0C
08
10
30
60
C0
80
FC
ENDCHAR
STARTCHAR florin
ENCODING -1
SWIDTH 602 0
DWIDTH 10 0
BBX 9 15 0 -3
BITMAP
0380
0600
0400
0400
0400
3F00
0C00
0C00
0800
0800
0800
0800
1800
1000
F000
ENDCHAR
STARTCHAR circumflex
ENCODING -1
SWIDTH 602 0
DWIDTH 10 0
BBX 4 3 3 10
BITMAP
60
A0
90
ENDCHAR
STARTCHAR caron
ENCODING -1
SWIDTH 602 0
DWIDTH 10 0
BBX 4 3 3 10
BITMAP
90
E0
60
ENDCHAR
STARTCHAR breve
ENCODING -1
SWIDTH 602 0
DWIDTH 10 0
BBX 5 2 2 11
BITMAP
88
78
ENDCHAR
STARTCHAR dotaccent
ENCODING -1
SWIDTH 602 0
DWIDTH 10 0
BBX 2 2 4 11
BITMAP
C0
C0
ENDCHAR
STARTCHAR ring
ENCODING -1
SWIDTH 602 0
DWIDTH 10 0
BBX 4 4 3 10
BITMAP
F0
90
90
60
ENDCHAR
STARTCHAR ogonek
ENCODING -1
SWIDTH 602 0
DWIDTH 10 0
BBX 3 3 3 -3
BITMAP
40
80
60
ENDCHAR
STARTCHAR tilde
ENCODING -1
SWIDTH 602 0
DWIDTH 10 0
BBX 5 2 2 11
BITMAP
68
B8
ENDCHAR
STARTCHAR hungarumlaut
ENCODING -1
SWIDTH 602 0
DWIDTH 10 0
BBX 5 3 3 10
BITMAP
58
D0
A0
ENDCHAR
STARTCHAR Omega
ENCODING -1
SWIDTH 602 0
DWIDTH 10 0
BBX 8 12 1 0
BITMAP
38
7E
C2
C3
83
83
83
83
C2
46
64
EF
ENDCHAR
STARTCHAR pi
ENCODING -1
SWIDTH 602 0
DWIDTH 10 0
BBX 8 9 1 0
BITMAP
FF
46
46
46
46
46
46
42
43
ENDCHAR
STARTCHAR endash
ENCODING -1
SWIDTH 602 0
DWIDTH 10 0
BBX 10 1 0 4
BITMAP
FFC0
ENDCHAR
STARTCHAR emdash
ENCODING -1
SWIDTH 602 0
DWIDTH 10 0
BBX 10 1 0 4
BITMAP
FFC0
ENDCHAR
STARTCHAR quoteleft
ENCODING -1
SWIDTH 602 0
DWIDTH 10 0
BBX 2 5 4 8
BITMAP
40
40
C0
C0
C0
ENDCHAR
STARTCHAR quoteright
ENCODING -1
SWIDTH 602 0
DWIDTH 10 0
BBX 2 5 4 8
BITMAP
C0
C0
C0
C0
80
ENDCHAR
STARTCHAR quotesinglbase
ENCODING -1
SWIDTH 602 0
DWIDTH 10 0
BBX 3 4 3 -2
BITMAP
60
60
40
C0
ENDCHAR
STARTCHAR quotedblleft
ENCODING -1
SWIDTH 602 0
DWIDTH 10 0
BBX 6 5 2 8
BITMAP
44
4C
C8
D8
D8
ENDCHAR
STARTCHAR quotedblright
ENCODING -1
SWIDTH 602 0
DWIDTH 10 0
BBX 6 5 2 8
BITMAP
CC
CC
CC
C8
98
ENDCHAR
STARTCHAR quotedblbase
ENCODING -1
SWIDTH 602 0
DWIDTH 10 0
BBX 6 4 2 -2
BITMAP
CC
CC
C8
98
ENDCHAR
STARTCHAR dagger
ENCODING -1
SWIDTH 602 0
DWIDTH 10 0
BBX 7 14 1 -2
BITMAP
18
18
18
FE
FE
18
18
18
18
18
18
18
18
18
ENDCHAR
STARTCHAR daggerdbl
ENCODING -1
SWIDTH 602 0
DWIDTH 10 0
BBX 7 14 1 -2
BITMAP
18
18
18
FE
FE
18
18
18
18
FE
18
18
18
18
ENDCHAR
STARTCHAR bullet
ENCODING -1
SWIDTH 602 0
DWIDTH 10 0
BBX 4 4 3 4
BITMAP
F0
F0
F0
E0
ENDCHAR
STARTCHAR ellipsis
ENCODING -1
SWIDTH 602 0
DWIDTH 10 0
BBX 8 2 1 0
BITMAP
DB
DB
ENDCHAR
STARTCHAR perthousand
ENCODING -1
SWIDTH 602 0
DWIDTH 10 0
BBX 10 12 0 0
BITMAP
2000
F000
9000
9080
7300
1C00
6000
2300
5680
8C40
CC80
7380
ENDCHAR
STARTCHAR guilsinglleft
ENCODING -1
SWIDTH 602 0
DWIDTH 10 0
BBX 3 6 3 2
BITMAP
20
60
C0
80
40
20
ENDCHAR
STARTCHAR guilsinglright
ENCODING -1
SWIDTH 602 0
DWIDTH 10 0
BBX 4 7 3 1
BITMAP
80
40
30
30
60
C0
80
ENDCHAR
STARTCHAR Euro
ENCODING -1
SWIDTH 602 0
DWIDTH 10 0
BBX 8 12 0 0
BITMAP
0F
19
30
20
7E
20
20
FC
20
30
19
0F
ENDCHAR
STARTCHAR trademark
ENCODING -1
SWIDTH 602 0
DWIDTH 10 0
BBX 9 5 0 7
BITMAP
ED80
4D80
4A80
4880
4880
ENDCHAR
STARTCHAR partialdiff
ENCODING -1
SWIDTH 602 0
DWIDTH 10 0
BBX 6 11 2 0
BITMAP
30
68
04
04
74
D4
8C
8C
88
88
70
ENDCHAR
STARTCHAR Delta
ENCODING -1
SWIDTH 602 0
DWIDTH 10 0
BBX 10 11 0 0
BITMAP
0C00
1C00
1600
1200
3200
2300
2100
6100
4180
C080
FFC0
ENDCHAR
STARTCHAR product
ENCODING -1
SWIDTH 602 0
DWIDTH 10 0
BBX 7 16 1 -4
BITMAP
FE
82
82
82
82
82
82
82
82
82
82
82
82
82
82
82
ENDCHAR
STARTCHAR summation
ENCODING -1
SWIDTH 602 0
DWIDTH 10 0
BBX 7 16 1 -4
BITMAP
FE
40
40
20
30
10
08
0C
08
18
10
20
20
40
C0
FE
ENDCHAR
STARTCHAR minus
ENCODING -1
SWIDTH 602 0
DWIDTH 10 0
BBX 8 2 1 4
BITMAP
FF
FF
ENDCHAR
STARTCHAR fraction
ENCODING -1
SWIDTH 602 0
DWIDTH 10 0
BBX 7 14 1 -2
BITMAP
02
06
04
0C
08
18
10
10
30
20
60
40
C0
80
ENDCHAR
STARTCHAR periodcentered
ENCODING -1
SWIDTH 602 0
DWIDTH 10 0
BBX 2 3 4 4
BITMAP
C0
C0
C0
ENDCHAR
STARTCHAR radical
ENCODING -1
SWIDTH 602 0
DWIDTH 10 0
BBX 8 14 1 0
BITMAP
01
01
03
02
02
02
44
C4
44
28
28
28
30
10
ENDCHAR
STARTCHAR infinity
ENCODING -1
SWIDTH 602 0
DWIDTH 10 0
BBX 9 6 0 2
BITMAP
7300
5C80
8C80
8C80
5C80
7300
ENDCHAR
STARTCHAR integral
ENCODING -1
SWIDTH 602 0
DWIDTH 10 0
BBX 8 15 1 -3
BITMAP
0F
0A
18
18
18
18
18
18
18
10
10
10
10
D0
E0
ENDCHAR
STARTCHAR approxequal
ENCODING -1
SWIDTH 602 0
DWIDTH 10 0
BBX 8 6 1 2
BITMAP
60
FF
04
60
FF
04
ENDCHAR
STARTCHAR notequal
ENCODING -1
SWIDTH 602 0
DWIDTH 10 0
BBX 8 9 1 1
BITMAP
02
02
04
FF
18
30
FF
60
C0
ENDCHAR
STARTCHAR lessequal
ENCODING -1
SWIDTH 602 0
DWIDTH 10 0
BBX 8 9 1 0
BITMAP
01
0F
78
C0
F8
0F
01
00
FF
ENDCHAR
STARTCHAR greaterequal
ENCODING -1
SWIDTH 602 0
DWIDTH 10 0
BBX 8 9 1 0
BITMAP
80
F0
3E
03
1E
F0
80
00
FF
ENDCHAR
STARTCHAR lozenge
ENCODING -1
SWIDTH 602 0
DWIDTH 10 0
BBX 8 16 1 -3
BITMAP
10
18
28
24
24
44
42
82
81
82
42
44
24
28
18
10
ENDCHAR
STARTCHAR fi
ENCODING -1
SWIDTH 602 0
DWIDTH 10 0
BBX 8 13 0 0
BITMAP
0D
3D
20
20
FF
21
21
21
21
21
21
21
21
ENDCHAR
STARTCHAR fl
ENCODING -1
SWIDTH 602 0
DWIDTH 10 0
BBX 8 13 0 0
BITMAP
0F
3F
21
21
FD
21
21
21
21
21
21
21
21
ENDCHAR
STARTCHAR .notdef
ENCODING -1
SWIDTH 602 0
DWIDTH 10 0
BBX 8 15 1 -3
BITMAP
FF
81
81
81
81
81
81
81
81
81
81
81
81
81
FF
ENDCHAR
STARTCHAR c6459
ENCODING -1
SWIDTH 602 0
DWIDTH 10 0
BBX 5 2 2 10
BITMAP
C8
C8
ENDCHAR
STARTCHAR c6460
ENCODING -1
SWIDTH 602 0
DWIDTH 10 0
BBX 2 2 4 10
BITMAP
40
80
ENDCHAR
STARTCHAR c6461
ENCODING -1
SWIDTH 602 0
DWIDTH 10 0
BBX 5 2 2 10
BITMAP
68
98
ENDCHAR
STARTCHAR c6468
ENCODING -1
SWIDTH 602 0
DWIDTH 10 0
BBX 2 2 4 10
BITMAP
80
C0
ENDCHAR
STARTCHAR c6470
ENCODING -1
SWIDTH 602 0
DWIDTH 10 0
BBX 4 2 3 10
BITMAP
E0
90
ENDCHAR
STARTCHAR c6472
ENCODING -1
SWIDTH 602 0
DWIDTH 10 0
BBX 4 2 3 10
BITMAP
B0
60
ENDCHAR
STARTCHAR c6477
ENCODING -1
SWIDTH 602 0
DWIDTH 10 0
BBX 9 3 0 4
BITMAP
0380
3C00
C000
ENDCHAR
STARTCHAR c6478
ENCODING -1
SWIDTH 602 0
DWIDTH 10 0
BBX 5 7 2 5
BITMAP
10
30
50
50
F8
10
10
ENDCHAR
STARTCHAR c6475
ENCODING -1
SWIDTH 602 0
DWIDTH 10 0
BBX 4 2 3 10
BITMAP
B0
60
ENDCHAR
STARTCHAR c6476
ENCODING -1
SWIDTH 602 0
DWIDTH 10 0
BBX 2 2 4 10
BITMAP
C0
C0
ENDCHAR
ENDFONT
